<?xml version="1.0" encoding="UTF-8" standalone="no"?>
<!-- Generator: Adobe Illustrator 19.2.1, SVG Export Plug-In . SVG Version: 6.00 Build 0)  -->

<svg
   xmlns:dc="http://purl.org/dc/elements/1.1/"
   xmlns:cc="http://creativecommons.org/ns#"
   xmlns:rdf="http://www.w3.org/1999/02/22-rdf-syntax-ns#"
   xmlns:svg="http://www.w3.org/2000/svg"
   xmlns="http://www.w3.org/2000/svg"
   xmlns:sodipodi="http://sodipodi.sourceforge.net/DTD/sodipodi-0.dtd"
   xmlns:inkscape="http://www.inkscape.org/namespaces/inkscape"
   version="1.1"
   id="Layer_1"
   x="0px"
   y="0px"
   viewBox="0 0 317.98889 350.20001"
   enable-background="new 0 0 370 370"
   xml:space="preserve"
   inkscape:version="0.91 r13725"
   sodipodi:docname="MappedIn Logo with Text.svg"
   width="317.98889"
   height="350.20001"><metadata
     id="metadata31"><rdf:RDF><cc:Work
         rdf:about=""><dc:format>image/svg+xml</dc:format><dc:type
           rdf:resource="http://purl.org/dc/dcmitype/StillImage" /><dc:title>Pasted image at 2016_04_15 02_26 PM</dc:title></cc:Work></rdf:RDF></metadata><defs
     id="defs29" /><sodipodi:namedview
     pagecolor="#ffffff"
     bordercolor="#666666"
     borderopacity="1"
     objecttolerance="10"
     gridtolerance="10"
     guidetolerance="10"
     inkscape:pageopacity="0"
     inkscape:pageshadow="2"
     inkscape:window-width="1340"
     inkscape:window-height="757"
     id="namedview27"
     showgrid="false"
     fit-margin-top="0"
     fit-margin-left="0"
     fit-margin-right="0"
     fit-margin-bottom="0"
     inkscape:zoom="0.63783784"
     inkscape:cx="-55.516949"
     inkscape:cy="176.7"
     inkscape:window-x="0"
     inkscape:window-y="27"
     inkscape:window-maximized="0"
     inkscape:current-layer="Layer_1" /><title
     id="title3">Pasted image at 2016_04_15 02_26 PM</title><path
     d="m 186.6,149.3 0,-2.4 c 0,-22.8 0,-45.7 0,-68.5 0,-6.8 2.7,-9.5 9.5,-9.5 8,0 15.9,0 23.9,0 5,0 8,1.9 8.9,5.5 0.3,1.6 0.5,3.1 0.5,4.7 0.1,1.4 0,2.7 0,4.1 0,43.6 0,87.2 0,130.9 0,1.8 -0.1,3.6 -0.4,5.4 -0.4,3.6 -3.5,6.2 -7.1,6.1 -9.7,0.1 -19.4,0.1 -29.1,0 -3.6,0 -6.2,-2.2 -8.1,-5.1 -4.4,-6.7 -8.9,-13.4 -13.3,-20.1 l -35,-53.4 c -0.2,-0.4 -0.5,-0.7 -1.2,-1.6 0,1.5 0,2.4 0,3.3 0,22.4 0,44.8 0,67.1 0,1.1 -0.1,2.3 -0.3,3.4 -0.7,4.1 -3.1,6.5 -7.2,6.5 -9.4,0.1 -18.8,0.1 -28.2,0 -4.6,-0.1 -7,-2.9 -7.5,-8.3 -0.1,-0.8 0,-1.5 0,-2.3 0,-45.1 0,-90.1 0,-135.2 0,-0.4 0,-0.8 0,-1.1 0.1,-7 2.9,-9.8 9.8,-9.8 7.5,0 15,0.2 22.5,-0.1 6.5,-0.2 11,2.3 14.6,8 15.3,24 30.9,47.7 46.3,71.6 l 0.7,1.1 0.7,-0.3 z"
     id="path5"
     inkscape:connector-curvature="0"
     style="fill:#ff5000" /><path
     d="M 87.4,26.6 C 86.8,14 97.6,0 114.1,0 128.9,0.1 140.7,12.2 140.6,26.9 140.5,41.6 128.5,53.6 113.7,53.5 98.1,53.5 86.6,40 87.4,26.6 Z"
     id="path7"
     inkscape:connector-curvature="0"
     style="fill:#ff5000" /><path
     d="m 6.3,302.5 c 7.5,-5.1 12.1,-4.6 20.8,1.9 2.2,-2.6 5.2,-4.4 8.6,-5 8.8,-1.5 17.9,3.2 18.2,14.5 0.2,6.4 0,12.9 0,19.3 0,2.5 -0.6,2.9 -3.4,2.9 -2.8,0 -3.1,-0.4 -3.1,-2.9 0,-6.1 0,-12.3 0,-18.4 0.1,-3.7 -2.2,-7 -5.7,-8.3 -3.3,-1.2 -7.2,-0.4 -9.3,2.4 -1.2,1.5 -1.9,3.4 -2,5.3 -0.2,6.3 -0.1,12.6 -0.1,18.9 0,2.6 -0.5,3 -3.3,3 -2.8,0 -3.3,-0.4 -3.3,-3 0,-6.1 0,-12.1 0,-18.2 0,-4.2 -2.5,-7.6 -6.1,-8.6 -4.5,-1.4 -9.2,1.1 -10.6,5.6 -0.3,0.8 -0.4,1.7 -0.4,2.6 -0.1,6.3 0,12.6 0,18.9 0,2.5 -0.4,2.8 -3.2,2.8 -2.8,0 -3.4,-0.5 -3.4,-3 0,-10.2 0,-20.3 0,-30.5 0,-1.9 0.3,-3 2.6,-3 3.2,-0.1 3.4,-0.1 3.7,2.8 z"
     id="path9"
     inkscape:connector-curvature="0"
     style="fill:#ff5000" /><path
     d="m 258,331 c -9.6,6.8 -19.2,6.4 -25.9,-0.8 -6.3,-6.8 -6.7,-17.1 -0.9,-24.3 5.2,-6.5 17.1,-10.4 26.4,-2.2 0.1,-0.9 0.1,-1.6 0.1,-2.3 0,-4.5 0,-8.9 0,-13.4 0,-2.4 0.5,-2.8 3.3,-2.8 2.8,0 3.5,0.4 3.5,2.9 0,14.7 0,29.4 0,44.1 0,3.2 0,3 -4.1,3.2 -2.8,0.1 -2.4,-1.5 -2.4,-3.2 0.1,-0.3 0.1,-0.6 0,-1.2 z m -12.2,-25.3 c -6.5,-0.1 -11.9,5.1 -12.1,11.6 0,0.1 0,0.1 0,0.2 0,6.6 5.4,12 12,12 6.5,0.1 11.9,-5.1 12,-11.7 0,-0.1 0,-0.2 0,-0.2 0.2,-6.4 -4.9,-11.8 -11.3,-11.9 -0.2,0 -0.3,0 -0.6,0 l 0,0 z"
     id="path11"
     inkscape:connector-curvature="0"
     style="fill:#ff5000" /><path
     d="m 110.7,303.2 c 10.7,-6.6 19.9,-5.7 26.6,2.7 5.7,7.4 5.1,17.8 -1.5,24.5 -5.6,5.7 -16.7,8.7 -25.3,0.6 -0.1,0.8 -0.1,1.4 -0.1,2 0,4.5 0,9.1 0,13.6 0,3.2 -0.3,3.5 -3.2,3.5 -2.9,0 -3.4,-0.4 -3.4,-3.6 0,-14.6 0,-29.3 0,-43.9 0,-0.1 0,-0.3 0,-0.5 0.3,-1 0.5,-2.6 0.9,-2.7 1.6,-0.4 3.3,-0.3 4.8,0.1 0.8,0.5 0.8,2.4 1.2,3.7 z m 11.9,26.1 c 6.6,0 12,-5.3 12,-11.8 0,0 0,-0.1 0,-0.1 -0.1,-6.7 -5.5,-12.1 -12.2,-12 -6.7,0.2 -11.9,4.9 -11.8,12.1 -0.1,6.4 4.9,11.7 11.3,11.8 0.2,0 0.4,0 0.7,0 l 0,0 z"
     id="path13"
     inkscape:connector-curvature="0"
     style="fill:#ff5000" /><path
     d="m 152.7,331.1 c 0,5.6 0,10.9 0,16.2 0,2.6 -0.4,2.9 -3.1,2.9 -2.9,0 -3.5,-0.4 -3.5,-2.8 0,-15.2 0,-30.3 0,-45.5 0,-2.1 0.9,-2.8 2.9,-2.7 3.4,0.1 3.6,0.2 3.7,2.8 0,0.4 0,0.9 0.1,1.7 4.8,-4.3 10,-5.9 16.1,-4.6 10.1,2.2 16.5,12.1 14.3,22.2 -0.7,3.3 -2.3,6.3 -4.5,8.7 -7.1,7.4 -15.9,7.8 -26,1.1 z m 12.1,-1.8 c 6.6,0.1 12.1,-5.2 12.2,-11.8 0,-0.1 0,-0.2 0,-0.3 -0.1,-6.6 -5.6,-11.9 -12.2,-11.9 -6.5,0.1 -11.9,4.6 -11.9,12.1 -0.2,6.4 4.8,11.7 11.2,11.9 0.2,0 0.5,0 0.7,0 l 0,0 z"
     id="path15"
     inkscape:connector-curvature="0"
     style="fill:#ff5000" /><path
     d="m 89.5,304 c 0.1,-0.3 0.2,-0.6 0.2,-0.9 0.2,-3.6 0.2,-3.5 3.7,-3.6 1.9,0 2.5,0.6 2.5,2.5 -0.1,10.2 -0.1,20.3 0,30.5 0,2.1 -0.5,3 -2.8,2.9 -3.3,-0.2 -3.3,0 -3.4,-3 0,-0.4 0,-0.8 -0.1,-1.5 -4.8,4.6 -10.3,6.2 -16.6,4.8 -4.3,-0.9 -8.2,-3.4 -10.8,-7 -5.5,-7.4 -4.7,-17.8 1.8,-24.3 7,-7 18.3,-7.2 25.5,-0.4 z m -12.2,1.7 c -6.4,-0.2 -11.8,4.8 -12.1,11.3 0,0.2 0,0.3 0,0.5 0,6.6 5.3,12 11.9,12.1 6.6,0 12,-5.3 12.1,-11.9 0.1,-6.5 -5,-11.8 -11.5,-11.9 -0.1,-0.1 -0.2,-0.1 -0.4,-0.1 l 0,0 z"
     id="path17"
     inkscape:connector-curvature="0"
     style="fill:#ff5000" /><path
     d="m 195.2,320.1 c 0.8,5 4.8,8.8 9.8,9.5 3.8,0.6 7.7,-0.2 10.9,-2.3 1.4,-1 2.6,-1.3 3.7,0.5 1.5,2.5 1.5,3.1 -0.5,4.5 -9.6,6.5 -22.3,4.5 -28.2,-4.5 -6.5,-9.9 -2.7,-26.2 11.7,-28.9 12.5,-2.4 19.7,6.2 20.1,15.9 0.2,5.3 0.1,5.3 -5.1,5.3 l -22.4,0 0,0 z m 20.8,-6 c -0.5,-5.8 -4.1,-9.4 -9.6,-9.5 -5.9,-0.1 -10.5,3.7 -11.2,9.5 l 20.8,0 0,0 z"
     id="path19"
     inkscape:connector-curvature="0"
     style="fill:#ff5000" /><path
     d="m 293.9,302.6 c 3.4,-3 8.1,-4.2 12.5,-3.1 6.8,1.5 11.3,6.7 11.5,13.6 0.2,6.9 0,13.6 0,20.5 0,2.6 -1.8,2.4 -3.4,2.5 -1.6,0.1 -3.2,0 -3.2,-2.4 0.1,-6.3 0.1,-12.6 0,-18.9 0.1,-3.9 -2.4,-7.5 -6.2,-8.6 -4.5,-1.3 -9.2,1.2 -10.5,5.7 -0.2,0.8 -0.4,1.7 -0.3,2.6 0,6.3 0,12.6 0,18.9 0,2.3 -0.5,2.7 -3.3,2.7 -2.8,0 -3.3,-0.4 -3.3,-2.8 0,-10.3 0,-20.6 0,-31 0,-1.8 0.5,-2.7 2.4,-2.7 3.3,-0.1 3.6,0 3.8,3 z"
     id="path21"
     inkscape:connector-curvature="0"
     style="fill:#ff5000" /><path
     d="m 278.8,317.4 c 0,5.2 -0.1,10.5 0,15.7 0,1.7 -0.5,2.4 -2.2,2.2 -0.7,-0.1 -1.3,-0.1 -2,0 -1.8,0.2 -2.4,-0.8 -2.4,-2.4 0,-10.3 0,-20.6 0,-30.9 0,-1.7 0.5,-2.6 2.4,-2.4 0.8,0.1 1.5,0.1 2.3,0 1.5,-0.1 2,0.5 2,2 -0.1,5.2 0,10.5 -0.1,15.8 l 0,0 0,0 z"
     id="path23"
     inkscape:connector-curvature="0"
     style="fill:#ff5000" /><path
     d="m 275.6,296.2 c -1.7,0.1 -3.3,-1.2 -3.4,-2.9 0,-0.2 0,-0.5 0,-0.7 0,-1.9 1.5,-3.4 3.4,-3.4 0,0 0.1,0 0.1,0 1.9,0 3.5,1.6 3.6,3.5 0,0 0,0.1 0,0.1 0.1,1.8 -1.3,3.3 -3.1,3.4 -0.3,0 -0.4,0 -0.6,0 z"
     id="path25"
     inkscape:connector-curvature="0"
     style="fill:#ff5000" /></svg>