<?xml version="1.0" encoding="UTF-8" standalone="no"?>
<!-- Generator: Adobe Illustrator 19.2.0, SVG Export Plug-In . SVG Version: 6.00 Build 0)  -->

<svg
   xmlns:dc="http://purl.org/dc/elements/1.1/"
   xmlns:cc="http://creativecommons.org/ns#"
   xmlns:rdf="http://www.w3.org/1999/02/22-rdf-syntax-ns#"
   xmlns:svg="http://www.w3.org/2000/svg"
   xmlns="http://www.w3.org/2000/svg"
   xmlns:xlink="http://www.w3.org/1999/xlink"
   xmlns:sodipodi="http://sodipodi.sourceforge.net/DTD/sodipodi-0.dtd"
   xmlns:inkscape="http://www.inkscape.org/namespaces/inkscape"
   version="1.1"
   id="Layer_1"
   x="0px"
   y="0px"
   viewBox="0 0 407.70001 216.39999"
   xml:space="preserve"
   inkscape:version="0.91 r13725"
   sodipodi:docname="mappedin-path.svg"
   width="407.70001"
   height="216.39999"
   inkscape:export-filename="/Users/Ed/Documents/mappedin/logos/mappedin-path.png"
   inkscape:export-xdpi="70.639999"
   inkscape:export-ydpi="70.639999"><metadata
     id="metadata49"><rdf:RDF><cc:Work
         rdf:about=""><dc:format>image/svg+xml</dc:format><dc:type
           rdf:resource="http://purl.org/dc/dcmitype/StillImage" /><dc:title /></cc:Work></rdf:RDF></metadata><defs
     id="defs47" /><sodipodi:namedview
     pagecolor="#ffffff"
     bordercolor="#666666"
     borderopacity="1"
     objecttolerance="10"
     gridtolerance="10"
     guidetolerance="10"
     inkscape:pageopacity="0"
     inkscape:pageshadow="2"
     inkscape:window-width="1440"
     inkscape:window-height="826"
     id="namedview45"
     showgrid="false"
     fit-margin-top="0"
     fit-margin-left="0"
     fit-margin-right="0"
     fit-margin-bottom="0"
     inkscape:zoom="1.13"
     inkscape:cx="159.55501"
     inkscape:cy="74.655301"
     inkscape:window-x="-3"
     inkscape:window-y="23"
     inkscape:window-maximized="0"
     inkscape:current-layer="Layer_1" /><style
     type="text/css"
     id="style3">
	.st0{fill:#FF5000;}
	.st1{opacity:0.7;}
	.st2{clip-path:url(#SVGID_2_);fill:#FEDE00;}
	.st3{clip-path:url(#SVGID_4_);fill:#EE3C96;}
	.st4{clip-path:url(#SVGID_6_);fill:#4274BA;}
</style><path
     class="st0"
     d="m 92.8,210.2 -47.3,-72.1 0,70.1 c 0,5.6 -2.8,8.2 -8.9,8.2 l -23.1,0 c -6,0 -8.9,-2.6 -8.9,-8.2 l 0,-133.8 c 0,-5.6 2.8,-8.2 8.9,-8.2 l 22.9,0 c 6.5,0.2 8.6,1.2 11.9,6.2 l 47.1,72.5 0,-70.5 c 0,-5.6 2.8,-8.2 8.6,-8.2 l 23.1,0 c 6,0 8.9,2.6 8.9,8.2 l 0,133.8 c 0,5.6 -2.8,8.2 -8.9,8.2 l -22.5,0 c -6.4,0 -8.3,-1 -11.8,-6.2"
     id="path5"
     inkscape:connector-curvature="0"
     style="fill:#ff5000" /><path
     class="st0"
     d="m 50.8,25.4 c 0,14 -11.4,25.4 -25.4,25.4 C 11.4,50.8 0,39.4 0,25.4 0,11.4 11.4,0 25.4,0 c 14,0 25.4,11.4 25.4,25.4"
     id="path7"
     inkscape:connector-curvature="0"
     style="fill:#ff5000" /><g
     class="st1"
     id="g9"
     style="opacity:0.7;fill:#ffde00;fill-opacity:1"
     transform="translate(-296.2,-390.8)"><g
       id="g11"
       style="fill:#ffde00;fill-opacity:1"><defs
         id="defs13"><rect
           id="SVGID_1_"
           x="390.39999"
           y="455.89999"
           width="133.3"
           height="152.2" /></defs><clipPath
         id="SVGID_2_"><use
           xlink:href="#SVGID_1_"
           style="overflow:visible"
           id="use17"
           x="0"
           y="0"
           width="100%"
           height="100%" /></clipPath><path
         class="st2"
         d="m 479.6,601 -47.3,-72.1 0,70.1 c 0,5.6 -2.8,8.2 -8.9,8.2 l -23.1,0 c -6,0 -8.9,-2.6 -8.9,-8.2 l 0,-133.8 c 0,-5.6 2.8,-8.2 8.9,-8.2 l 22.9,0 c 6.5,0.2 8.6,1.2 11.9,6.2 l 47.1,72.5 0,-70.5 c 0,-5.6 2.8,-8.2 8.6,-8.2 l 23.1,0 c 6,0 8.9,2.6 8.9,8.2 l 0,133.8 c 0,5.6 -2.8,8.2 -8.9,8.2 l -22.5,0 c -6.4,0 -8.4,-1 -11.8,-6.2"
         id="path19"
         clip-path="url(#SVGID_2_)"
         inkscape:connector-curvature="0"
         style="fill:#ffde00;fill-opacity:1" /></g></g><g
     class="st1"
     id="g21"
     style="opacity:0.7;fill:#ff28a5;fill-opacity:1"
     transform="translate(-296.2,-390.8)"><g
       id="g23"
       style="fill:#ff28a5;fill-opacity:1"><defs
         id="defs25"><rect
           id="SVGID_3_"
           x="480.79999"
           y="455.89999"
           width="133.3"
           height="152.2" /></defs><clipPath
         id="SVGID_4_"><use
           xlink:href="#SVGID_3_"
           style="overflow:visible"
           id="use29"
           x="0"
           y="0"
           width="100%"
           height="100%" /></clipPath><path
         class="st3"
         d="m 569.9,601 -47.3,-72.1 0,70.1 c 0,5.6 -2.8,8.2 -8.9,8.2 l -23.1,0 c -6,0 -8.9,-2.6 -8.9,-8.2 l 0,-133.8 c 0,-5.6 2.8,-8.2 8.9,-8.2 l 22.9,0 c 6.5,0.2 8.6,1.2 11.9,6.2 l 47.1,72.5 0,-70.5 c 0,-5.6 2.8,-8.2 8.6,-8.2 l 23.1,0 c 6,0 8.9,2.6 8.9,8.2 l 0,133.8 c 0,5.6 -2.8,8.2 -8.9,8.2 l -22.5,0 c -6.4,0 -8.3,-1 -11.8,-6.2"
         id="path31"
         clip-path="url(#SVGID_4_)"
         inkscape:connector-curvature="0"
         style="fill:#ff28a5;fill-opacity:1" /></g></g><g
     class="st1"
     id="g33"
     style="opacity:0.7;fill:#007afc;fill-opacity:1"
     transform="translate(-296.2,-390.8)"><g
       id="g35"
       style="fill:#007afc;fill-opacity:1"><defs
         id="defs37"><rect
           id="SVGID_5_"
           x="571.59998"
           y="456"
           width="133.3"
           height="152.2" /></defs><clipPath
         id="SVGID_6_"><use
           xlink:href="#SVGID_5_"
           style="overflow:visible"
           id="use41"
           x="0"
           y="0"
           width="100%"
           height="100%" /></clipPath><path
         class="st4"
         d="m 660.7,601 -47.3,-72.1 0,70.1 c 0,5.6 -2.8,8.2 -8.9,8.2 l -23.1,0 c -6,0 -8.9,-2.6 -8.9,-8.2 l 0,-133.8 c 0,-5.6 2.8,-8.2 8.9,-8.2 l 22.9,0 c 6.5,0.2 8.6,1.2 11.9,6.2 l 47.1,72.5 0,-70.5 c 0,-5.6 2.8,-8.2 8.6,-8.2 l 23.1,0 c 6,0 8.9,2.6 8.9,8.2 l 0,133.8 c 0,5.6 -2.8,8.2 -8.9,8.2 l -22.5,0 c -6.4,0 -8.4,-1 -11.8,-6.2"
         id="path43"
         clip-path="url(#SVGID_6_)"
         inkscape:connector-curvature="0"
         style="fill:#007afc;fill-opacity:1" /></g></g></svg>