<?xml version="1.0" encoding="UTF-8" standalone="no"?>
<!-- Generator: Adobe Illustrator 19.2.1, SVG Export Plug-In . SVG Version: 6.00 Build 0)  -->

<svg
   xmlns:dc="http://purl.org/dc/elements/1.1/"
   xmlns:cc="http://creativecommons.org/ns#"
   xmlns:rdf="http://www.w3.org/1999/02/22-rdf-syntax-ns#"
   xmlns:svg="http://www.w3.org/2000/svg"
   xmlns="http://www.w3.org/2000/svg"
   xmlns:sodipodi="http://sodipodi.sourceforge.net/DTD/sodipodi-0.dtd"
   xmlns:inkscape="http://www.inkscape.org/namespaces/inkscape"
   version="1.1"
   id="Layer_1"
   x="0px"
   y="0px"
   viewBox="0 0 317.99999 225.77499"
   enable-background="new 0 0 370 370"
   xml:space="preserve"
   inkscape:version="0.91 r13725"
   sodipodi:docname="MappedIn Logo.svg"
   width="318"
   height="225.77499"
   inkscape:export-filename="/Users/Ed/Downloads/MappedIn Logo with Text.png"
   inkscape:export-xdpi="26.0096"
   inkscape:export-ydpi="26.0096"><metadata
     id="metadata31"><rdf:RDF><cc:Work
         rdf:about=""><dc:format>image/svg+xml</dc:format><dc:type
           rdf:resource="http://purl.org/dc/dcmitype/StillImage" /><dc:title>Pasted image at 2016_04_15 02_26 PM</dc:title></cc:Work></rdf:RDF></metadata><defs
     id="defs29" /><sodipodi:namedview
     pagecolor="#ffffff"
     bordercolor="#666666"
     borderopacity="1"
     objecttolerance="10"
     gridtolerance="10"
     guidetolerance="10"
     inkscape:pageopacity="0"
     inkscape:pageshadow="2"
     inkscape:window-width="1340"
     inkscape:window-height="757"
     id="namedview27"
     showgrid="false"
     fit-margin-top="0"
     fit-margin-left="0"
     fit-margin-right="0"
     fit-margin-bottom="0"
     inkscape:zoom="1.2756757"
     inkscape:cx="219.91496"
     inkscape:cy="95.753719"
     inkscape:window-x="119"
     inkscape:window-y="49"
     inkscape:window-maximized="0"
     inkscape:current-layer="Layer_1" /><title
     id="title3">Pasted image at 2016_04_15 02_26 PM</title><path
     d="m 187.23931,149.3 0,-2.4 c 0,-22.8 0,-45.7 0,-68.500008 0,-6.8 2.7,-9.5 9.5,-9.5 8,0 15.9,0 23.9,0 5,0 8,1.9 8.9,5.5 0.3,1.6 0.5,3.1 0.5,4.7 0.1,1.4 0,2.7 0,4.1 0,43.600008 0,87.200008 0,130.900008 0,1.8 -0.1,3.6 -0.4,5.4 -0.4,3.6 -3.5,6.2 -7.1,6.1 -9.7,0.1 -19.4,0.1 -29.1,0 -3.6,0 -6.2,-2.2 -8.1,-5.1 -4.4,-6.7 -8.9,-13.4 -13.3,-20.1 l -35,-53.4 c -0.2,-0.4 -0.5,-0.7 -1.2,-1.6 0,1.5 0,2.4 0,3.3 0,22.4 0,44.8 0,67.1 0,1.1 -0.1,2.3 -0.3,3.4 -0.7,4.1 -3.1,6.5 -7.2,6.5 -9.4,0.1 -18.8,0.1 -28.2,0 -4.599999,-0.1 -6.999999,-2.9 -7.499999,-8.3 -0.1,-0.8 0,-1.5 0,-2.3 0,-45.1 0,-90.1 0,-135.200008 0,-0.4 0,-0.8 0,-1.1 0.1,-7 2.9,-9.8 9.799999,-9.8 7.5,0 15,0.2 22.5,-0.1 6.5,-0.2 11,2.3 14.6,8 15.3,24.000008 30.9,47.700008 46.3,71.600008 l 0.7,1.1 0.7,-0.3 z"
     id="path5"
     inkscape:connector-curvature="0"
     style="fill:#ff5000" /><path
     d="m 88.039311,26.599992 c -0.6,-12.6 10.2,-26.5999997929688 26.699999,-26.5999997929688 14.8,0.099999992969 26.6,12.1999997929688 26.5,26.8999997929688 -0.1,14.7 -12.1,26.7 -26.9,26.6 -15.599999,0 -27.099999,-13.5 -26.299999,-26.9 z"
     id="path7"
     inkscape:connector-curvature="0"
     style="fill:#ff5000" /></svg>